<?xml version="1.0" encoding="UTF-8" standalone="no"?>
<!-- Created with Inkscape (http://www.inkscape.org/) -->

<svg
   xmlns:dc="http://purl.org/dc/elements/1.1/"
   xmlns:cc="http://creativecommons.org/ns#"
   xmlns:rdf="http://www.w3.org/1999/02/22-rdf-syntax-ns#"
   xmlns:svg="http://www.w3.org/2000/svg"
   xmlns="http://www.w3.org/2000/svg"
   xmlns:sodipodi="http://sodipodi.sourceforge.net/DTD/sodipodi-0.dtd"
   xmlns:inkscape="http://www.inkscape.org/namespaces/inkscape"
   width="744.09448"
   height="1052.3622"
   id="svg2"
   version="1.1"
   inkscape:version="0.48.5 r10040"
   sodipodi:docname="back.svg">
  <defs
     id="defs4" />
  <sodipodi:namedview
     id="base"
     pagecolor="#ffffff"
     bordercolor="#666666"
     borderopacity="1.0"
     inkscape:pageopacity="0.0"
     inkscape:pageshadow="2"
     inkscape:zoom="1"
     inkscape:cx="112.54871"
     inkscape:cy="583.51824"
     inkscape:document-units="mm"
     inkscape:current-layer="layer1"
     showgrid="false"
     units="mm"
     showguides="true"
     inkscape:guide-bbox="true"
     inkscape:snap-bbox="true"
     inkscape:bbox-paths="true"
     inkscape:bbox-nodes="true"
     inkscape:snap-bbox-edge-midpoints="true"
     inkscape:snap-bbox-midpoints="true"
     inkscape:object-paths="true"
     inkscape:snap-intersection-paths="true"
     inkscape:object-nodes="true"
     inkscape:snap-smooth-nodes="true"
     inkscape:snap-midpoints="true"
     inkscape:snap-object-midpoints="true"
     inkscape:snap-center="true"
     inkscape:snap-page="true"
     inkscape:window-width="1918"
     inkscape:window-height="1059"
     inkscape:window-x="1080"
     inkscape:window-y="19"
     inkscape:window-maximized="0"
     inkscape:snap-global="true">
    <sodipodi:guide
       orientation="1,0"
       position="43.5,867"
       id="guide3773" />
    <sodipodi:guide
       orientation="1,0"
       position="101.18659,614.69969"
       id="guide3868" />
    <sodipodi:guide
       orientation="0,1"
       position="497.39764,58.102859"
       id="guide3874" />
  </sodipodi:namedview>
  <metadata
     id="metadata7">
    <rdf:RDF>
      <cc:Work
         rdf:about="">
        <dc:format>image/svg+xml</dc:format>
        <dc:type
           rdf:resource="http://purl.org/dc/dcmitype/StillImage" />
        <dc:title />
      </cc:Work>
    </rdf:RDF>
  </metadata>
  <g
     inkscape:label="Layer 1"
     inkscape:groupmode="layer"
     id="layer1"
     transform="translate(0,-2.5390623e-6)">
    <rect
       style="fill:none;stroke:#ff0000;stroke-width:0.76931202;stroke-miterlimit:4;stroke-opacity:1;stroke-dasharray:none"
       id="rect2985"
       width="453.13327"
       height="687.40161"
       x="43.705013"
       y="161.61385" />
    <rect
       style="fill:none;stroke:#ff0000;stroke-width:0.70866144;stroke-miterlimit:4;stroke-opacity:1;stroke-dasharray:none"
       id="rect2985-1"
       width="453.5433"
       height="166.53543"
       x="43.5"
       y="860.09448" />
    <text
       xml:space="preserve"
       style="font-size:12px;font-style:normal;font-variant:normal;font-weight:normal;font-stretch:normal;line-height:125%;letter-spacing:0px;word-spacing:0px;fill:#0000ff;fill-opacity:1;stroke:none;font-family:DejaVu Sans;-inkscape-font-specification:DejaVu Sans"
       x="27.858398"
       y="23.651253"
       id="text3800"
       sodipodi:linespacing="125%"><tspan
         sodipodi:role="line"
         id="tspan3802"
         x="27.858398"
         y="23.651253">Back</tspan></text>
    <path
       d="m 418.20628,950.45556 c 3.69151,-0.59716 7.43731,-0.10857 11.1831,-0.27143 2.00861,0.16286 4.45152,-0.54287 6.02584,1.03145 2.28005,2.60576 4.39724,5.3744 6.73158,7.92587 1.30288,1.57433 3.85436,1.57433 5.48297,0.54288 1.79146,-1.6286 3.09435,-3.69151 4.72296,-5.48298 1.41146,-1.52003 2.49719,-3.74579 4.77724,-3.96293 3.96294,-0.10858 7.92588,-0.0543 11.94311,-0.0543 3.90866,0.0543 7.4373,1.90003 10.80309,3.80008 4.1258,2.66006 6.89444,7.00301 8.52304,11.56309 1.19432,3.58295 1.03145,7.38305 0.65145,11.07458 -1.14003,4.45147 -3.14864,8.84869 -6.67729,11.88879 -3.25722,2.93148 -7.38301,4.99438 -11.72597,5.64581 -4.5058,0.0537 -9.0659,0 -13.57172,0 -1.08573,0.16288 -1.79146,-0.70569 -2.4429,-1.35712 -1.95434,-2.22579 -3.7458,-4.56009 -5.64583,-6.84014 -1.35718,-1.68299 -3.85438,-2.66008 -5.80871,-1.41148 -3.58293,2.55145 -5.32012,7.16581 -9.01161,9.55448 -4.50582,0.16288 -9.01163,0.0537 -13.51744,0.0537 -5.15725,-0.65143 -10.15164,-2.98573 -13.78886,-6.78588 -3.36579,-3.85431 -5.70012,-8.74018 -5.97156,-13.89744 -0.65145,-6.35155 2.11719,-12.59454 6.40585,-17.15463 2.98578,-2.9315 6.89443,-4.72296 10.91166,-5.86299 z"
       id="path60"
       style="fill:none;stroke:#ff0000;stroke-width:0.70866142;stroke-miterlimit:4;stroke-opacity:1;stroke-dasharray:none"
       inkscape:connector-curvature="0" />
    <rect
       style="fill:none;stroke:#ff0000;stroke-width:0.70866144;stroke-miterlimit:4;stroke-opacity:1;stroke-dasharray:none"
       id="rect3774"
       width="219.68504"
       height="106.29921"
       x="101.54092"
       y="887.60577" />
  </g>
</svg>
